<svg width="18" height="18" viewBox="0 0 18 18" fill="none" xmlns="http://www.w3.org/2000/svg">
<path d="M3.9375 8.4375H15.1875C15.3367 8.4375 15.4798 8.49676 15.5852 8.60225C15.6907 8.70774 15.75 8.85082 15.75 9C15.75 9.14918 15.6907 9.29226 15.5852 9.39775C15.4798 9.50324 15.3367 9.5625 15.1875 9.5625H3.9375C3.78832 9.5625 3.64524 9.50324 3.53975 9.39775C3.43426 9.29226 3.375 9.14918 3.375 9C3.375 8.85082 3.43426 8.70774 3.53975 8.60225C3.64524 8.49676 3.78832 8.4375 3.9375 8.4375Z" fill="black"/>
<path d="M4.1704 9.00001L8.83578 13.6643C8.9414 13.7699 9.00074 13.9131 9.00074 14.0625C9.00074 14.2119 8.9414 14.3551 8.83578 14.4608C8.73016 14.5664 8.5869 14.6257 8.43753 14.6257C8.28816 14.6257 8.1449 14.5664 8.03928 14.4608L2.97678 9.39826C2.9244 9.34601 2.88283 9.28393 2.85448 9.2156C2.82612 9.14726 2.81152 9.074 2.81152 9.00001C2.81152 8.92602 2.82612 8.85276 2.85448 8.78442C2.88283 8.71608 2.9244 8.65401 2.97678 8.60176L8.03928 3.53926C8.1449 3.43364 8.28816 3.3743 8.43753 3.3743C8.5869 3.3743 8.73016 3.43364 8.83578 3.53926C8.9414 3.64488 9.00074 3.78814 9.00074 3.93751C9.00074 4.08688 8.9414 4.23014 8.83578 4.33576L4.1704 9.00001Z" fill="black"/>
</svg>
